<?xml version="1.0" encoding="UTF-8"?>
<svg width="107px" height="96px" viewBox="0 0 107 96" version="1.1" xmlns="http://www.w3.org/2000/svg" xmlns:xlink="http://www.w3.org/1999/xlink">
    <title>E523F57A-092C-49A1-B29D-658388E8CF76</title>
    <g id="Page-1" stroke="none" stroke-width="1" fill="none" fill-rule="evenodd">
        <g id="Home-Copy-4" transform="translate(-863.000000, -3385.000000)" fill="#E3E3E3" fill-rule="nonzero">
            <path d="M911,3481 L911,3432.88759 L886.887324,3432.88759 C887.488263,3417.52459 895.525822,3409.5808 911,3409.05621 L911,3409.05621 L911,3385 C879,3388.67213 863,3404.63466 863,3432.88759 L863,3432.88759 L863,3481 L911,3481 Z M970,3481 L970,3432.88759 L945.887324,3432.88759 C946.488263,3417.52459 954.525822,3409.5808 970,3409.05621 L970,3409.05621 L970,3385 C938,3388.67213 922,3404.63466 922,3432.88759 L922,3432.88759 L922,3481 L970,3481 Z" id="“"></path>
        </g>
    </g>
</svg>