<svg width="43" height="62" viewBox="0 0 43 62" fill="none" xmlns="http://www.w3.org/2000/svg">
<path fill-rule="evenodd" clip-rule="evenodd" d="M3.41846 26.1731L3.41846 30.0781C3.41846 30.6523 3.73985 31.0625 4.18979 31.0625C4.63973 31.0625 4.96112 30.6523 4.96112 30.0781L4.96112 26.1731C6.76088 25.6809 8.17499 23.63 8.17499 21.1689C8.17499 18.7079 6.76088 16.657 4.96112 16.1647L4.96112 1.93604C4.96112 1.36182 4.63973 0.95166 4.18979 0.95166C3.73985 0.95166 3.41846 1.36182 3.41846 1.93604L3.41846 16.1647C1.61869 16.657 0.20459 18.7079 0.20459 21.1689C0.20459 23.63 1.55441 25.6809 3.41846 26.1731ZM4.18979 18.0515C5.53961 18.0515 6.63233 19.4462 6.63233 21.1689C6.63233 22.8917 5.53961 24.2863 4.18979 24.2863C2.83996 24.2863 1.74725 22.8917 1.74725 21.1689C1.74725 19.4462 2.83996 18.0515 4.18979 18.0515ZM15.4256 5.84106V1.93604C15.4256 1.36182 15.1042 0.95166 14.6543 0.95166C14.2044 0.95166 13.883 1.36182 13.883 1.93604V5.84106C12.0832 6.33325 10.6691 8.38416 10.6691 10.8452C10.6691 13.3063 12.0832 15.3572 13.883 15.8495V30.0781C13.883 30.6523 14.2044 31.0625 14.6543 31.0625C15.1042 31.0625 15.4256 30.6523 15.4256 30.0781V15.8495C17.2254 15.3572 18.6395 13.3063 18.6395 10.8452C18.6395 8.38416 17.2897 6.33325 15.4256 5.84106ZM14.6543 13.9626C13.3045 13.9626 12.2117 12.568 12.2117 10.8452C12.2117 9.12244 13.3045 7.72791 14.6543 7.72791C16.0041 7.72791 17.0969 9.12244 17.0969 10.8452C17.0969 12.568 16.0041 13.9626 14.6543 13.9626ZM34.2317 15.3817L37.4472 49.0471C40.1511 49.1783 42.3196 52.0253 42.3193 55.5078C42.3193 59.2322 39.8397 62.2314 36.8769 61.9575C34.3874 61.7273 32.3768 59.1587 32.1985 55.9811C32.0215 52.8228 33.6339 50.0977 35.8708 49.2874L35.5541 45.9716L29.2107 56.2281C29.0964 56.4131 28.9221 56.5209 28.7375 56.5209H11.3561C10.9741 59.6074 8.87571 61.9751 6.35174 61.9751C3.43547 61.9751 1.0867 58.8147 1.29781 55.0365C1.47521 51.8619 3.48418 49.2921 5.97116 49.059C8.66216 48.8068 10.9551 51.255 11.3562 54.4951H11.8368L11.5507 52.9319C10.9107 49.4352 8.46791 46.9618 5.65444 46.9618H3.37234C2.92596 46.9618 2.56565 46.4915 2.57908 45.9178C2.59215 45.3635 2.97114 44.936 3.40568 44.936H5.65457C9.22429 44.936 12.2845 48.0345 13.0966 52.4712L13.467 54.495H28.2607C28.2607 54.495 35.2395 43.229 35.2878 43.1803L32.6326 15.3817H30.8429C30.3965 15.3817 30.0362 14.9113 30.0496 14.3376C30.0627 13.7834 30.4417 13.356 30.8762 13.356H35.7059C36.1523 13.356 36.5126 13.8264 36.4991 14.4C36.4861 14.9543 36.1071 15.3817 35.6725 15.3817H34.2317ZM2.87212 55.5078C2.87212 57.9569 4.43312 59.9492 6.35198 59.9492C7.99759 59.9492 9.37911 58.4832 9.7393 56.5208H6.35198C5.91365 56.5208 5.55835 56.0673 5.55835 55.5078C5.55835 54.9485 5.91365 54.495 6.35198 54.495H9.7393C9.37911 52.5327 7.99759 51.0668 6.35198 51.0668C4.43312 51.0668 2.87212 53.059 2.87212 55.5078ZM33.7728 55.5078C33.7728 57.9569 35.3338 59.9492 37.2526 59.9492C39.1713 59.9492 40.7323 57.9569 40.7323 55.5078C40.7323 53.2277 39.3784 51.344 37.6428 51.0953L38.0302 55.1516C38.0833 55.7069 37.7734 56.2118 37.3384 56.2795C37.3258 56.2815 37.3133 56.2831 37.3008 56.2843C37.2809 56.2861 37.2611 56.2871 37.2415 56.2871C36.846 56.2871 36.5036 55.9104 36.4547 55.3966L36.0665 51.3328C34.7301 51.9529 33.7728 53.5903 33.7728 55.5078Z" fill="black"/>
</svg>
