<svg width="64" height="79" viewBox="0 0 64 79" fill="none" xmlns="http://www.w3.org/2000/svg">
<path fill-rule="evenodd" clip-rule="evenodd" d="M55.7258 2.57507L59.2449 32.2555C61.3944 32.3579 63.1182 34.579 63.118 37.2961C63.118 40.2018 61.1468 42.5419 58.7915 42.3281C56.8125 42.1486 55.2141 40.1444 55.0724 37.6654C54.9317 35.2013 56.2135 33.0751 57.9918 32.4429L57.74 29.856L52.6972 37.858C52.6064 38.0024 52.4678 38.0865 52.321 38.0865L44.1279 38.0864C43.8242 40.4945 42.1561 42.3418 40.1496 42.3418C37.8313 42.3418 35.9641 39.8761 36.132 36.9283C36.273 34.4515 37.87 32.4467 39.8471 32.2648C41.9863 32.0679 43.8091 33.978 44.128 36.506H44.51L44.2826 35.2863C43.7738 32.5582 41.8319 30.6285 39.5953 30.6285H37.7811C37.4263 30.6285 37.1398 30.2615 37.1505 29.814C37.1609 29.3816 37.4622 29.0481 37.8076 29.0481H39.5954C42.4332 29.0481 44.8659 31.4655 45.5115 34.9269L45.806 36.5059H51.942C51.942 36.5059 57.4898 27.7162 57.5283 27.6783L54.4545 2.57507H53.0318C52.677 2.57507 52.3905 2.20813 52.4012 1.76062C52.4116 1.32812 52.7129 0.994629 53.0583 0.994629H56.8977C57.2525 0.994629 57.539 1.36169 57.5283 1.8092C57.5179 2.2417 57.2166 2.57507 56.8712 2.57507H55.7258ZM37.3835 37.2961C37.3835 39.2068 38.6244 40.7612 40.1498 40.7612C41.458 40.7612 42.5563 39.6174 42.8426 38.0863H40.1498C39.8014 38.0863 39.5189 37.7325 39.5189 37.2961C39.5189 36.8596 39.8014 36.5059 40.1498 36.5059H42.8426C42.5563 34.975 41.458 33.8312 40.1498 33.8312C38.6244 33.8312 37.3835 35.3855 37.3835 37.2961ZM56.3239 37.2961C56.3239 39.2068 57.5649 40.7612 59.0902 40.7612C60.6155 40.7612 61.8564 39.2068 61.8564 37.2961C61.8564 35.5171 60.7801 34.0475 59.4004 33.8535L59.7084 37.0182C59.7506 37.4514 59.5043 37.8453 59.1584 37.8982C59.1325 37.9021 59.1068 37.9042 59.0814 37.9042C58.767 37.9042 58.4948 37.6102 58.4559 37.2094L58.1473 34.0387C57.0849 34.5226 56.3239 35.8002 56.3239 37.2961ZM5.34142 72.1364C8.42665 76.0098 12.5991 78.1749 16.9432 78.157C21.289 78.1764 25.4634 76.0123 28.5512 72.139C31.639 68.2659 33.388 62.9996 33.4146 57.4955C33.4168 52.3853 31.9065 47.4596 29.1817 43.6908C26.4799 39.918 22.783 37.525 18.7861 36.9618L17.6055 36.7975V28.573H20.9027C22.1132 28.573 23.2741 27.964 24.13 26.8799C24.986 25.7958 25.4668 24.3256 25.4668 22.7924C25.4668 21.2593 24.986 19.7889 24.13 18.7048C23.2741 17.6207 22.1132 17.0117 20.9027 17.0117H12.9982C11.7877 17.0117 10.6267 17.6207 9.77071 18.7048C8.91475 19.7889 8.43389 21.2593 8.43389 22.7924C8.43389 24.3256 8.91475 25.7958 9.77071 26.8799C10.6267 27.964 11.7877 28.573 12.9982 28.573H16.2952V36.7975L15.1146 36.9618C11.1168 37.521 7.41894 39.9146 4.71923 43.6908C1.99437 47.4596 0.483885 52.3853 0.486086 57.4955C0.510085 62.9974 2.25618 68.2629 5.34142 72.1364ZM8.64761 41.7843C11.0958 39.6747 13.9823 38.5298 16.9432 38.4938C20.9395 38.4773 24.778 40.4681 27.6172 44.03C30.4565 47.5919 32.0648 52.4341 32.0899 57.4955C32.0898 61.246 31.2136 64.9125 29.5713 68.0333C27.9291 71.1541 25.5942 73.5896 22.8612 75.033C20.1282 76.4763 17.1191 76.8632 14.2128 76.1447C11.3066 75.4261 8.63318 73.6342 6.52937 70.9949C4.42556 68.3556 2.9853 64.9872 2.39025 61.3132C1.79521 57.6393 2.0719 53.8246 3.18539 50.3494C4.29887 46.8743 6.19942 43.894 8.64761 41.7843ZM10.692 19.8624C11.3036 19.0878 12.1332 18.6528 12.9982 18.6528H20.9027C21.7676 18.6528 22.5971 19.0878 23.2087 19.8624C23.8203 20.6371 24.1639 21.688 24.1639 22.7834C24.1639 23.8789 23.8203 24.9294 23.2087 25.7041C22.5971 26.4788 21.7676 26.9137 20.9027 26.9137H12.9982C12.1332 26.9137 11.3036 26.4788 10.692 25.7041C10.0804 24.9294 9.73696 23.8789 9.73696 22.7834C9.73696 21.688 10.0804 20.6371 10.692 19.8624ZM10.6368 50.7483L16.684 58.3344H22.8753V56.6749H17.2167L11.5726 49.5627L10.6368 50.7483ZM35.4084 78.0996C35.4887 78.1398 35.5745 78.1594 35.6608 78.157C35.8321 78.1547 35.9958 78.0674 36.1169 77.9139C36.238 77.7605 36.3068 77.553 36.3087 77.3361C36.3076 77.1171 36.2396 76.9076 36.1187 76.751C35.9978 76.5945 35.8336 76.5034 35.6608 76.4973C35.5738 76.4971 35.4875 76.5189 35.407 76.5609C35.3266 76.603 35.2536 76.6647 35.1921 76.7426C35.1305 76.8206 35.0817 76.9132 35.0485 77.015C35.0153 77.1169 34.9982 77.2258 34.9984 77.3361C34.9984 77.4453 35.0157 77.5536 35.0492 77.6544C35.0826 77.7551 35.1316 77.8468 35.1933 77.9233C35.255 77.9998 35.3282 78.0594 35.4084 78.0996ZM43.0864 77.9193C43.2105 78.073 43.3775 78.1584 43.551 78.157C43.7245 78.1584 43.8915 78.073 44.0155 77.9193C44.1396 77.7656 44.2106 77.5558 44.2132 77.3361C44.2132 77.1135 44.1434 76.9004 44.0192 76.743C43.895 76.5857 43.7266 76.4973 43.551 76.4973C43.3753 76.4973 43.2068 76.5857 43.0826 76.743C42.9584 76.9004 42.8885 77.1135 42.8885 77.3361C42.8912 77.5558 42.9624 77.7656 43.0864 77.9193ZM50.991 77.9193C51.1151 78.073 51.282 78.1584 51.4555 78.157C51.6291 78.1584 51.796 78.073 51.9201 77.9193C52.0441 77.7656 52.1151 77.5558 52.1178 77.3361C52.1178 77.1135 52.048 76.9004 51.9238 76.743C51.7996 76.5857 51.6312 76.4973 51.4555 76.4973C51.2799 76.4973 51.1114 76.5857 50.9871 76.743C50.8629 76.9004 50.7933 77.1135 50.7933 77.3361C50.7959 77.5558 50.867 77.7656 50.991 77.9193ZM50.9893 58.0858C51.1131 58.2427 51.2805 58.3319 51.4555 58.3344C51.6306 58.3319 51.798 58.2427 51.9218 58.0858C52.0456 57.9291 52.1159 57.7173 52.1178 57.4955C52.1178 57.2731 52.048 57.0598 51.9238 56.9025C51.7996 56.7451 51.6312 56.6567 51.4555 56.6567C51.2799 56.6567 51.1114 56.7451 50.9871 56.9025C50.8629 57.0598 50.7933 57.2731 50.7933 57.4955C50.7952 57.7173 50.8654 57.9291 50.9893 58.0858ZM51.0996 68.0894C51.2043 68.1818 51.328 68.2327 51.4555 68.2363C51.6291 68.2378 51.796 68.1527 51.9201 67.999C52.0441 67.8453 52.1151 67.6355 52.1178 67.4158C52.1178 67.2543 52.0801 67.0967 52.0095 66.9622C51.939 66.8276 51.8387 66.7224 51.7211 66.6598C51.6036 66.5972 51.474 66.5797 51.3487 66.61C51.2234 66.6401 51.108 66.7164 51.0168 66.8295C50.9257 66.9424 50.8628 67.0869 50.8362 67.2449C50.8096 67.4028 50.8204 67.5674 50.8673 67.7177C50.9141 67.8679 50.995 67.9971 51.0996 68.0894ZM50.9893 48.1656C51.1131 48.3224 51.2805 48.4116 51.4555 48.4141C51.6306 48.4116 51.798 48.3224 51.9218 48.1656C52.0456 48.0088 52.1159 47.797 52.1178 47.5752C52.1178 47.3528 52.048 47.139 51.9238 46.9818C51.7996 46.8245 51.6312 46.7365 51.4555 46.7365C51.2799 46.7365 51.1114 46.8245 50.9871 46.9818C50.8629 47.139 50.7933 47.3528 50.7933 47.5752C50.7952 47.797 50.8654 48.0088 50.9893 48.1656Z" fill="black"/>
</svg>
