<svg width="36" height="66" viewBox="0 0 36 66" fill="none" xmlns="http://www.w3.org/2000/svg">
<path fill-rule="evenodd" clip-rule="evenodd" d="M31.5583 4.45117H33.0151C34.6242 4.45117 35.9287 6.11389 35.9288 8.16504V60.8713C35.9263 63.434 34.2971 65.5106 32.2867 65.5137H4.60738C2.5969 65.5105 0.967722 63.4338 0.965332 60.8713V8.16492C0.965332 6.11389 2.2698 4.45117 3.87892 4.45117H5.33575V3.52271C5.33575 1.98425 6.31406 0.737305 7.52096 0.737305C8.72786 0.737305 9.70617 1.98425 9.70617 3.52271V4.45117H27.1878V3.52271C27.1878 1.98425 28.1662 0.737305 29.3731 0.737305C30.58 0.737305 31.5583 1.98425 31.5583 3.52271V4.45117ZM29.3731 2.59424C28.9708 2.59424 28.6447 3.00989 28.6447 3.52271V7.23645C28.6447 7.74927 28.9708 8.16492 29.3731 8.16492C29.7754 8.16492 30.1014 7.74927 30.1014 7.23645V3.52271C30.1014 3.00989 29.7754 2.59424 29.3731 2.59424ZM7.52096 2.59424C7.11866 2.59424 6.79259 3.00989 6.79259 3.52271V7.23645C6.79259 7.74927 7.11866 8.16492 7.52096 8.16492C7.92326 8.16492 8.24934 7.74927 8.24934 7.23645V3.52271C8.24934 3.00989 7.92326 2.59424 7.52096 2.59424ZM32.2866 63.6567C33.4935 63.6567 34.4719 62.4095 34.4719 60.8713L34.4719 13.7358H2.42217V60.8713C2.42217 62.4097 3.40056 63.6567 4.60738 63.6567H32.2866ZM2.42217 11.8788H34.4719L34.4719 8.16504C34.4719 7.1394 33.8197 6.30811 33.0151 6.30811H31.5583V7.23645C31.5583 8.7749 30.58 10.0219 29.3731 10.0219C28.1662 10.0219 27.1878 8.77478 27.1878 7.23645V6.30811H9.70617V7.23645C9.70617 8.7749 8.72778 10.0219 7.52096 10.0219C6.31415 10.0219 5.33575 8.77478 5.33575 7.23645V6.30811H3.879C3.0744 6.30811 2.42217 7.1394 2.42217 8.16504V11.8788ZM11.3457 30.6379C11.0742 30.2197 10.59 30.1633 10.2643 30.512C9.93865 30.8606 9.8947 31.4824 10.1662 31.9006L14.0007 37.8101C14.1362 38.0193 14.333 38.1473 14.5444 38.1636H14.5905C14.7863 38.1631 14.9747 38.067 15.1173 37.8947L28.9215 21.1514C29.2294 20.7776 29.2431 20.1542 28.9521 19.7587C28.6611 19.3633 28.1756 19.3456 27.8677 19.7194L14.6571 35.7428L11.3457 30.6379ZM11.3457 47.9121C11.0742 47.4939 10.59 47.4374 10.2643 47.7861C9.93865 48.1348 9.8947 48.7565 10.1662 49.1748L14.0007 55.084C14.1362 55.2932 14.333 55.4213 14.5444 55.4375H14.5905C14.7863 55.437 14.9747 55.3409 15.1173 55.1686L28.9215 38.4257C29.2294 38.052 29.2431 37.4285 28.9521 37.0331C28.6611 36.6377 28.1756 36.62 27.8677 36.9938L14.6571 53.0168L11.3457 47.9121Z" fill="black"/>
</svg>
