<svg width="66" height="83" viewBox="0 0 66 83" fill="none" xmlns="http://www.w3.org/2000/svg">
<path fill-rule="evenodd" clip-rule="evenodd" d="M17.0961 82.1211C12.752 82.1391 8.57949 79.9739 5.49426 76.1004C2.40902 72.227 0.662917 66.9615 0.638918 61.4594C0.636717 56.3492 2.1472 51.4234 4.87207 47.6545C7.57178 43.8783 11.2696 41.4847 15.2675 40.9255L16.4481 40.7612V32.5367H13.151C11.9405 32.5367 10.7795 31.9276 9.92355 30.8435C9.0676 29.7594 8.58673 28.2892 8.58673 26.756C8.58673 25.2228 9.0676 23.7525 9.92355 22.6684C10.7795 21.5843 11.9405 20.9753 13.151 20.9753H21.0556C22.2661 20.9753 23.4269 21.5843 24.2829 22.6684C25.1388 23.7525 25.6197 25.2228 25.6197 26.756C25.6197 28.2892 25.1388 29.7594 24.2829 30.8435C23.4269 31.9276 22.2661 32.5367 21.0556 32.5367H17.7584V40.7612L18.9389 40.9255C22.9358 41.4888 26.6328 43.8817 29.3345 47.6545C32.0594 51.4234 33.5697 56.3492 33.5675 61.4594C33.5409 66.9636 31.7919 72.2299 28.7041 76.1031C25.6163 79.9764 21.4419 82.1405 17.0961 82.1211ZM17.0961 42.4575C14.1351 42.4935 11.2487 43.6384 8.80045 45.7481C6.35226 47.8578 4.45171 50.838 3.33822 54.3132C2.22474 57.7884 1.94804 61.6032 2.54309 65.2772C3.13814 68.9511 4.5784 72.3196 6.68221 74.9589C8.78602 77.5982 11.4594 79.3902 14.3657 80.1087C17.272 80.8273 20.281 80.4405 23.0141 78.997C25.7471 77.5536 28.0819 75.1181 29.7242 71.9973C31.3664 68.8765 32.2427 65.2099 32.2428 61.4594C32.2177 56.398 30.6094 51.5557 27.7701 47.9938C24.9308 44.4319 21.0924 42.441 17.0961 42.4575ZM13.151 22.6163C12.2861 22.6163 11.4565 23.0514 10.8449 23.826C10.2333 24.6006 9.88981 25.6516 9.88981 26.7471C9.88981 27.8425 10.2333 28.8931 10.8449 29.6677C11.4565 30.4423 12.2861 30.8774 13.151 30.8774H21.0556C21.9205 30.8774 22.75 30.4423 23.3615 29.6677C23.9731 28.8931 24.3168 27.8425 24.3168 26.7471C24.3168 25.6516 23.9731 24.6006 23.3615 23.826C22.75 23.0514 21.9205 22.6163 21.0556 22.6163H13.151ZM16.8369 62.2982L10.7897 54.7121L11.7254 53.5265L17.3696 60.6389H23.0281V62.2982H16.8369ZM41.832 30.4215C40.5493 28.8189 39.5307 26.9094 38.8355 24.8041C38.1403 22.6988 37.7824 20.4395 37.7824 18.1575C37.7824 15.8754 38.1403 13.6166 38.8355 11.5112C39.5307 9.40594 40.5493 7.49645 41.832 5.89392C44.4395 2.64499 47.9507 0.824219 51.6084 0.824219C55.2662 0.824219 58.7774 2.64499 61.3848 5.89392C62.6676 7.49645 63.686 9.40594 64.3812 11.5112C65.0764 13.6166 65.4345 15.8754 65.4345 18.1575C65.4345 20.4395 65.0764 22.6988 64.3812 24.8041C63.686 26.9094 62.6676 28.8189 61.3848 30.4215L51.6084 42.6944L41.832 30.4215ZM51.6084 2.46529C49.9685 2.45591 48.3432 2.85736 46.826 3.64601C45.3089 4.43466 43.9298 5.595 42.768 7.06084C41.6083 8.5116 40.6875 10.2395 40.0592 12.1443C39.4308 14.0492 39.1073 16.093 39.1073 18.1575C39.1073 20.2219 39.4308 22.2662 40.0592 24.171C40.6875 26.0759 41.6083 27.8038 42.768 29.2545L51.6084 40.3601L60.4489 29.2545C61.6117 27.806 62.5351 26.0789 63.1655 24.1737C63.7958 22.2686 64.1205 20.2232 64.1205 18.1575C64.1205 16.0918 63.7958 14.0468 63.1655 12.1417C62.5351 10.2365 61.6117 8.50934 60.4489 7.06084C59.2879 5.59361 57.9089 4.43209 56.3915 3.64334C54.8742 2.8546 53.2486 2.45421 51.6084 2.46529ZM51.6084 23.9475C50.7056 23.9385 49.825 23.5914 49.0779 22.9494C48.3307 22.3073 47.7504 21.3992 47.4101 20.3399C47.0698 19.2807 46.9848 18.1176 47.1658 16.9972C47.3468 15.8769 47.7858 14.8494 48.4272 14.0445C49.0687 13.2397 49.8838 12.6934 50.7701 12.4747C51.6563 12.256 52.5739 12.3748 53.407 12.8157C54.2401 13.2567 54.9515 14 55.4514 14.9523C55.9513 15.9047 56.2172 17.0232 56.2158 18.1668C56.2131 18.9296 56.0918 19.6841 55.8588 20.3876C55.6258 21.091 55.2858 21.7295 54.8579 22.2664C54.43 22.8032 53.9227 23.2281 53.3652 23.5166C52.8076 23.805 52.2107 23.9514 51.6084 23.9475ZM51.6084 14.0272C50.9653 14.0362 50.3387 14.286 49.8073 14.7449C49.2759 15.2038 48.8635 15.8514 48.622 16.6063C48.3804 17.3613 48.3206 18.1898 48.4499 18.9878C48.5792 19.7858 48.8918 20.5175 49.3485 21.091C49.8053 21.6645 50.3857 22.054 51.0168 22.2107C51.648 22.3675 52.3018 22.2842 52.8957 21.9717C53.4896 21.6591 53.9972 21.1314 54.3549 20.4544C54.7125 19.7773 54.9042 18.9814 54.9057 18.1668C54.9 17.0648 54.5497 16.0104 53.9318 15.2346C53.3139 14.4588 52.4785 14.0247 51.6084 14.0272ZM35.8137 82.1211C35.7274 82.1236 35.6416 82.1039 35.5613 82.0637C35.481 82.0236 35.4079 81.9638 35.3462 81.8874C35.2845 81.811 35.2355 81.7193 35.2021 81.6185C35.1686 81.5177 35.1512 81.4095 35.1513 81.3001C35.1511 81.1899 35.1681 81.081 35.2014 80.9791C35.2346 80.8773 35.2834 80.7846 35.345 80.7067C35.4065 80.6287 35.4795 80.5671 35.5599 80.525C35.6404 80.483 35.7267 80.4611 35.8137 80.4614C35.9865 80.4675 36.1507 80.5586 36.2716 80.7151C36.3924 80.8716 36.4605 81.0812 36.4616 81.3001C36.4597 81.5171 36.3909 81.7247 36.2698 81.8781C36.1487 82.0314 35.985 82.1188 35.8137 82.1211ZM43.7039 82.1211C43.5303 82.1226 43.3634 82.0371 43.2393 81.8834C43.1153 81.7297 43.0441 81.5199 43.0414 81.3001C43.0414 81.0777 43.1113 80.8644 43.2355 80.7071C43.3597 80.5498 43.5282 80.4614 43.7039 80.4614C43.8795 80.4614 44.0479 80.5498 44.1721 80.7071C44.2963 80.8644 44.3661 81.0777 44.3661 81.3001C44.3635 81.5199 44.2924 81.7297 44.1684 81.8834C44.0444 82.0371 43.8774 82.1226 43.7039 82.1211ZM51.6084 82.1211C51.4349 82.1226 51.268 82.0371 51.1439 81.8834C51.0199 81.7297 50.9488 81.5199 50.9462 81.3001C50.9462 81.0777 51.0158 80.8644 51.14 80.7071C51.2643 80.5498 51.4328 80.4614 51.6084 80.4614C51.7841 80.4614 51.9525 80.5498 52.0767 80.7071C52.2009 80.8644 52.2707 81.0777 52.2707 81.3001C52.2681 81.5199 52.197 81.7297 52.073 81.8834C51.9489 82.0371 51.782 82.1226 51.6084 82.1211ZM51.6084 62.2982C51.4334 62.2958 51.266 62.2066 51.1422 62.0498C51.0184 61.893 50.9481 61.6812 50.9462 61.4594C50.9462 61.2369 51.0158 61.0237 51.14 60.8664C51.2643 60.7091 51.4328 60.6206 51.6084 60.6206C51.7841 60.6206 51.9525 60.7091 52.0767 60.8664C52.2009 61.0237 52.2707 61.2369 52.2707 61.4594C52.2688 61.6812 52.1985 61.893 52.0747 62.0498C51.9509 62.2066 51.7835 62.2958 51.6084 62.2982ZM51.6084 72.2003C51.481 72.1967 51.3572 72.1457 51.2525 72.0534C51.1479 71.9611 51.067 71.8319 51.0202 71.6816C50.9733 71.5314 50.9625 71.3668 50.9891 71.2088C51.0157 71.0509 51.0786 70.9064 51.1698 70.7934C51.2609 70.6805 51.3763 70.6042 51.5016 70.574C51.6269 70.5437 51.7565 70.5612 51.874 70.6238C51.9916 70.6864 52.0919 70.7916 52.1624 70.9261C52.233 71.0606 52.2707 71.2183 52.2707 71.3798C52.2681 71.5995 52.197 71.8093 52.073 71.963C51.9489 72.1167 51.782 72.2018 51.6084 72.2003ZM51.6084 52.3779C51.4334 52.3755 51.266 52.2862 51.1422 52.1294C51.0184 51.9726 50.9481 51.7608 50.9462 51.5391C50.9462 51.3166 51.0158 51.1029 51.14 50.9456C51.2643 50.7883 51.4328 50.7003 51.6084 50.7003C51.7841 50.7003 51.9525 50.7883 52.0767 50.9456C52.2009 51.1029 52.2707 51.3166 52.2707 51.5391C52.2688 51.7608 52.1985 51.9726 52.0747 52.1294C51.9509 52.2862 51.7835 52.3755 51.6084 52.3779Z" fill="black"/>
</svg>
