<svg width="62" height="77" viewBox="0 0 62 77" fill="none" xmlns="http://www.w3.org/2000/svg">
<path fill-rule="evenodd" clip-rule="evenodd" d="M30.8497 39.1874C30.1215 39.1831 29.4218 39.5448 28.9042 40.1927C28.3866 40.8406 28.0936 41.7216 28.0894 42.6426V47.8259C28.0894 48.7519 28.3803 49.64 28.898 50.2947C29.4156 50.9495 30.1176 51.3172 30.8497 51.3172C31.5818 51.3172 32.284 50.9495 32.8017 50.2947C33.3193 49.64 33.6102 48.7519 33.6102 47.8259V42.6426C33.606 41.7216 33.313 40.8406 32.7954 40.1927C32.2778 39.5448 31.5779 39.1831 30.8497 39.1874ZM32.23 47.8259C32.23 48.2889 32.0845 48.7327 31.8257 49.0601C31.5669 49.3875 31.2158 49.5715 30.8497 49.5715C30.4837 49.5715 30.1328 49.3875 29.8739 49.0601C29.6151 48.7327 29.4696 48.2889 29.4696 47.8259V42.6426C29.4696 42.1797 29.6151 41.7358 29.8739 41.4084C30.1328 41.0811 30.4837 40.897 30.8497 40.897C31.2158 40.897 31.5669 41.0811 31.8257 41.4084C32.0845 41.7358 32.23 42.1797 32.23 42.6426V47.8259ZM38.4338 31.6649V22.0726C38.2771 19.6624 37.4094 17.4148 36.0031 15.7764C34.5968 14.1379 32.7548 13.2285 30.8428 13.2285C28.9307 13.2285 27.0885 14.1379 25.6822 15.7764C24.2759 17.4148 23.4083 19.6624 23.2516 22.0726C23.252 22.1874 23.2705 22.3012 23.3058 22.4069C23.3411 22.5127 23.3927 22.6086 23.4576 22.689C23.5225 22.7694 23.5992 22.8323 23.6836 22.8749C23.7679 22.9174 23.858 22.9383 23.9488 22.9364C24.0388 22.9378 24.1282 22.9164 24.2116 22.8735C24.295 22.8306 24.3706 22.7673 24.4343 22.6868C24.4979 22.6063 24.5483 22.5102 24.5823 22.4047C24.6162 22.2993 24.6329 22.1864 24.6318 22.0726C24.7865 20.1252 25.5078 18.32 26.6554 17.007C27.803 15.6941 29.2953 14.967 30.8428 14.967C32.3902 14.967 33.8823 15.6941 35.0299 17.007C36.1776 18.32 36.8988 20.1252 37.0536 22.0726V30.675C36.9256 30.585 36.7975 30.5133 36.6694 30.4413C36.3991 30.2793 36.1144 30.1353 35.8298 29.9914C35.659 29.9014 35.4741 29.8292 35.3033 29.7392L34.7486 29.5234C34.4498 29.4155 34.1509 29.3072 33.8379 29.2352C33.6956 29.1992 33.5817 29.1631 33.4394 29.1271C33.0695 29.0371 32.7138 28.9654 32.3438 28.9114C32.2584 28.9114 32.1872 28.8934 32.1019 28.8934C31.686 28.8365 31.268 28.8064 30.8497 28.8033C28.1489 28.8335 25.5157 29.8741 23.2817 31.7941C21.0477 33.7141 19.313 36.4276 18.2962 39.5925C17.2795 42.7574 17.0261 46.2323 17.5681 49.579C18.1101 52.9257 19.4233 55.9946 21.3421 58.399C23.2608 60.8033 25.6994 62.4358 28.3503 63.0901C31.0013 63.7445 33.7459 63.3915 36.2387 62.0761C38.7314 60.7606 40.8605 58.5415 42.3576 55.6981C43.8548 52.8548 44.653 49.5145 44.6517 46.0983C44.6474 43.2279 44.0764 40.4043 42.9905 37.8838C41.9047 35.3633 40.3384 33.2257 38.4338 31.6649ZM30.8497 61.6652C27.5855 61.6652 24.4549 60.0253 22.1468 57.1059C19.8386 54.1865 18.542 50.227 18.542 46.0983C18.542 41.9696 19.8386 38.0101 22.1468 35.0907C24.4549 32.1713 27.5855 30.5309 30.8497 30.5309C31.2197 30.5309 31.5896 30.567 31.9454 30.603L32.3011 30.657C32.5714 30.693 32.8276 30.7471 33.0695 30.8011C33.2545 30.8371 33.4252 30.8908 33.6102 30.9268C33.8378 30.9988 34.0797 31.071 34.3216 31.161C34.5066 31.233 34.6916 31.3227 34.8908 31.3947C35.0046 31.4487 35.1327 31.5029 35.2465 31.5569C35.9359 31.8952 36.6021 32.3044 37.2386 32.7805C39.5672 34.519 41.3764 37.1818 42.3854 40.3548C43.3944 43.5279 43.5466 47.0336 42.8181 50.3273C42.0896 53.6209 40.5213 56.5183 38.357 58.5686C36.1927 60.6188 33.5536 61.7073 30.8497 61.6652ZM52.2356 2.25821H60.2749V12.3365H61.2708V0.998535H52.2356V2.25821ZM1.80894 12.3365V2.25821H9.84823V0.998535H0.798584V12.3365H1.80894ZM60.2749 65.4447V75.5226H52.2356V76.7827H61.2708V65.4447H60.2749ZM9.84823 75.5226H1.80894V65.4447H0.798584V76.7827H9.84823V75.5226Z" fill="black"/>
</svg>
