<svg width="50" height="63" viewBox="0 0 50 63" fill="none" xmlns="http://www.w3.org/2000/svg">
<path fill-rule="evenodd" clip-rule="evenodd" d="M9.76922 60.148C8.58952 60.148 7.45809 59.5495 6.62392 58.4844C5.78975 57.4192 5.32116 55.9745 5.32116 54.4681C5.32116 52.9618 5.78975 51.5174 6.62392 50.4523C7.45809 49.3871 8.58952 48.7887 9.76922 48.7887H21.3329C22.1987 48.7887 23.029 48.3496 23.6412 47.5679C24.2533 46.7862 24.5973 45.7257 24.5973 44.6202C24.5973 43.5147 24.2533 42.4546 23.6412 41.6728C23.029 40.8911 22.1987 40.452 21.3329 40.452H13.5868L13.5008 40.7702C13.367 41.2589 13.1427 41.699 12.8471 42.0535C12.5515 42.408 12.1932 42.6663 11.8028 42.8062C11.4124 42.9462 11.0013 42.9638 10.6044 42.8575C10.2075 42.7513 9.83658 42.5244 9.52306 42.196C9.20953 41.8676 8.96264 41.4472 8.80342 40.971C8.64421 40.4947 8.57738 39.9767 8.60852 39.4604C8.63965 38.9441 8.76785 38.4449 8.98229 38.0054C9.19672 37.5659 9.49104 37.1993 9.84025 36.9361L10.1629 36.6972L2.60743 20.8672C1.58315 18.9011 0.995649 16.617 0.907402 14.2582C0.819156 11.8995 1.23353 9.5544 2.10636 7.47256C2.97919 5.39072 4.27781 3.6504 5.86398 2.43632C7.45016 1.22225 9.26449 0.579856 11.1138 0.578128C12.9631 0.576401 14.7782 1.21511 16.3658 2.42623C17.9533 3.63734 19.2539 5.37565 20.1292 7.45586C21.0044 9.53607 21.4214 11.8803 21.3359 14.2392C21.2503 16.5981 20.6654 18.8832 19.6434 20.8513L12.0767 36.6972L12.4019 36.9361C12.9114 37.3168 13.3002 37.9133 13.5008 38.6222L13.5868 38.9407H21.3329C21.917 38.9407 22.4954 39.0876 23.0351 39.373C23.5747 39.6584 24.0651 40.0765 24.4781 40.6039C24.8912 41.1313 25.2188 41.7575 25.4423 42.4466C25.6659 43.1357 25.7809 43.8743 25.7809 44.6202C25.7809 45.366 25.6659 46.1047 25.4423 46.7938C25.2188 47.4829 24.8912 48.109 24.4781 48.6364C24.0651 49.1638 23.5747 49.5823 23.0351 49.8677C22.4954 50.1531 21.917 50.3 21.3329 50.3H9.77416C8.90839 50.3 8.0781 50.7391 7.46591 51.5208C6.85372 52.3025 6.50977 53.3626 6.50977 54.4681C6.50977 55.5736 6.85372 56.6341 7.46591 57.4158C8.0781 58.1976 8.90839 58.6367 9.77416 58.6367H19.4091C19.5651 58.6362 19.7149 58.7145 19.8258 58.8546C19.9367 58.9946 19.9996 59.1852 20.0009 59.3844C20.0003 59.5853 19.9379 59.778 19.8273 59.9208C19.7166 60.0636 19.5665 60.1451 19.4091 60.148H9.77416H9.76922ZM11.1148 38.0019C10.8512 38.0025 10.5938 38.1027 10.3749 38.2901C10.1559 38.4775 9.98541 38.7438 9.88489 39.0549C9.78436 39.366 9.75833 39.7084 9.81006 40.0384C9.86178 40.3684 9.98899 40.6715 10.1755 40.9092C10.3621 41.147 10.5996 41.3087 10.8581 41.3741C11.1167 41.4396 11.3846 41.4056 11.6281 41.2767C11.8716 41.1477 12.0796 40.9296 12.226 40.6497C12.3724 40.3699 12.4505 40.0409 12.4505 39.7043C12.4501 39.2527 12.3094 38.8194 12.0592 38.5002C11.809 38.181 11.4698 38.0019 11.1161 38.0019H11.1148ZM11.1148 2.07781C8.71865 2.0795 6.42093 3.29499 4.72579 5.45745C3.03065 7.6199 2.0766 10.5527 2.07297 13.6123C2.06812 15.8958 2.59879 18.129 3.59672 20.0239C3.65279 20.1512 11.1148 35.7902 11.1148 35.7902L18.6379 20.0239C19.6363 18.1293 20.1671 15.8959 20.1617 13.6123C20.1577 10.552 19.203 7.61878 17.5071 5.45628C15.8113 3.29378 13.5128 2.07865 11.1161 2.07781H11.1148ZM11.1148 19.2921C10.235 19.2925 9.37491 18.9598 8.64327 18.3359C7.91163 17.712 7.34131 16.8249 7.00446 15.7871C6.66761 14.7492 6.57935 13.6072 6.75084 12.5053C6.92233 11.4034 7.34588 10.3913 7.9679 9.59683C8.58992 8.80234 9.38248 8.26127 10.2453 8.04199C11.1082 7.8227 12.0027 7.93492 12.8155 8.36476C13.6284 8.7946 14.3231 9.52272 14.8119 10.4568C15.3007 11.3908 15.5616 12.4889 15.5616 13.6123C15.5603 15.1176 15.0916 16.5607 14.2583 17.6254C13.4249 18.6901 12.2949 19.2896 11.1161 19.2921H11.1148ZM11.1148 9.4601C10.4702 9.46073 9.84033 9.70526 9.30472 10.1631C8.76912 10.621 8.35188 11.2715 8.10585 12.0322C7.85981 12.7929 7.79599 13.6299 7.9225 14.4369C8.049 15.244 8.36012 15.985 8.8165 16.5662C9.27289 17.1474 9.85405 17.5426 10.4864 17.702C11.1188 17.8613 11.7739 17.7777 12.369 17.4615C12.9641 17.1453 13.4724 16.6109 13.8296 15.9257C14.1867 15.2406 14.3767 14.4353 14.3755 13.6123C14.3741 12.5099 14.0301 11.4533 13.4189 10.6747C12.8077 9.89605 11.9794 9.45926 11.1161 9.4601H11.1148ZM39.2534 62.5981C38.735 62.5968 38.2296 62.3912 37.8059 62.0097C37.3823 61.6282 37.0611 61.0892 36.8861 60.4661L36.7963 60.148H28.0747C27.9177 60.1447 27.768 60.0628 27.6578 59.92C27.5476 59.7772 27.4857 59.5849 27.4854 59.3844C27.4861 59.1855 27.5484 58.9951 27.6589 58.8549C27.7694 58.7148 27.9189 58.6362 28.0747 58.6367H36.7963L36.8861 58.3185C37.078 57.6128 37.4582 57.0158 37.9601 56.632L38.2853 56.3776L30.7473 41.2794C29.7209 39.3121 29.1318 37.0261 29.0428 34.665C28.9539 32.3039 29.3683 29.9559 30.2421 27.8719C31.1159 25.788 32.4161 24.046 34.0043 22.8314C35.5925 21.6168 37.409 20.9752 39.2603 20.9752C41.1115 20.9752 42.928 21.6168 44.5162 22.8314C46.1043 24.046 47.4047 25.788 48.2784 27.8719C49.1522 29.9559 49.5667 32.3039 49.4777 34.665C49.3887 37.0261 48.7996 39.3121 47.7732 41.2794L40.2352 56.3776L40.5604 56.632C41.0319 56.995 41.3973 57.5454 41.6005 58.1989C41.8036 58.8524 41.8332 59.573 41.6849 60.2501C41.5365 60.9273 41.2184 61.5234 40.7792 61.9475C40.34 62.3716 39.8041 62.6003 39.2534 62.5981ZM39.2534 57.6819C38.9898 57.6825 38.7323 57.7831 38.5134 57.9705C38.2945 58.1579 38.124 58.4242 38.0235 58.7353C37.923 59.0464 37.8969 59.3884 37.9486 59.7184C38.0003 60.0484 38.1275 60.3515 38.3141 60.5892C38.5006 60.827 38.7381 60.9887 38.9967 61.0542C39.2552 61.1196 39.5232 61.0856 39.7667 60.9567C40.0101 60.8277 40.2182 60.6096 40.3645 60.3298C40.5109 60.0499 40.589 59.7209 40.589 59.3844C40.589 59.1605 40.5545 58.9389 40.4874 58.7322C40.4202 58.5255 40.3218 58.3376 40.1977 58.1795C40.0736 58.0214 39.9264 57.8962 39.7644 57.8109C39.6023 57.7255 39.4287 57.6815 39.2534 57.6819ZM39.2534 22.49C37.6157 22.4896 36.0086 23.0568 34.6036 24.1315C33.1986 25.2061 32.0485 26.7477 31.276 28.5917C30.5034 30.4356 30.1373 32.5129 30.2169 34.6017C30.2965 36.6905 30.8187 38.7126 31.7278 40.452C31.7615 40.5157 39.2534 55.5184 39.2534 55.5184C39.2534 55.5184 46.7466 40.5157 46.7814 40.4361C47.6873 38.6966 48.2068 36.6759 48.2845 34.5892C48.3623 32.5026 47.9954 30.4281 47.2229 28.5866C46.4504 26.7452 45.3013 25.2058 43.8979 24.1322C42.4945 23.0586 40.8894 22.491 39.2534 22.49ZM39.2534 39.7203C38.3736 39.7206 37.5135 39.3875 36.7818 38.7636C36.0502 38.1397 35.4799 37.253 35.143 36.2152C34.8062 35.1774 34.7179 34.0353 34.8894 32.9334C35.0609 31.8316 35.4844 30.819 36.1064 30.0245C36.7285 29.2301 37.521 28.689 38.3839 28.4697C39.2468 28.2504 40.1412 28.363 40.9541 28.7929C41.7669 29.2227 42.4617 29.9504 42.9505 30.8845C43.4393 31.8186 43.7002 32.917 43.7002 34.0404C43.6989 35.546 43.23 36.9892 42.3964 38.0539C41.5627 39.1187 40.4325 39.7182 39.2534 39.7203ZM39.2534 29.8719C38.6076 29.871 37.9761 30.1148 37.4388 30.5722C36.9015 31.0297 36.4825 31.6805 36.2348 32.4421C35.9872 33.2036 35.922 34.0418 36.0475 34.8507C36.173 35.6595 36.4837 36.4028 36.9401 36.9862C37.3965 37.5696 37.9781 37.9669 38.6114 38.1281C39.2448 38.2894 39.9013 38.2073 40.498 37.892C41.0947 37.5766 41.6048 37.0421 41.9637 36.3566C42.3225 35.671 42.5141 34.865 42.5141 34.0404C42.5134 32.936 42.1698 31.8768 41.5586 31.0954C40.9473 30.314 40.1183 29.874 39.2534 29.8719ZM23.7363 60.148C23.5793 60.1447 23.4296 60.0628 23.3194 59.92C23.2092 59.7772 23.1473 59.5849 23.147 59.3844C23.154 59.1897 23.2195 59.0062 23.3298 58.8716C23.4402 58.7371 23.5868 58.6619 23.7394 58.6619C23.892 58.6619 24.0387 58.7371 24.1491 58.8716C24.2594 59.0062 24.3249 59.1897 24.3319 59.3844C24.3309 59.586 24.2679 59.7791 24.1565 59.9219C24.0451 60.0648 23.8942 60.1459 23.7363 60.148Z" fill="black"/>
</svg>
