<svg width="60" height="76" viewBox="0 0 60 76" fill="none" xmlns="http://www.w3.org/2000/svg">
<path fill-rule="evenodd" clip-rule="evenodd" d="M4.27582 42.1846C3.38136 42.1881 2.52226 41.7354 1.88577 40.9257C1.24929 40.1161 0.887083 39.0151 0.878418 37.8628V4.98157C0.884833 3.82839 1.24636 2.7258 1.88333 1.91554C2.52031 1.10529 3.38068 0.653859 4.27582 0.660223H30.0276C30.9227 0.653859 31.7832 1.10529 32.4202 1.91554C33.0572 2.7258 33.4185 3.82839 33.425 4.98157V29.6242C33.425 29.8413 33.358 30.0495 33.2389 30.2029C33.1197 30.3564 32.9583 30.4427 32.7898 30.4427C32.6213 30.4427 32.4597 30.3564 32.3406 30.2029C32.2215 30.0495 32.1545 29.8413 32.1545 29.6242V4.98157C32.1535 4.62294 32.0977 4.26813 31.9903 3.93726C31.8829 3.60639 31.7261 3.30597 31.5286 3.05324C31.3311 2.8005 31.0969 2.60076 30.8394 2.46464C30.5819 2.32851 30.3059 2.2587 30.0276 2.25991H4.27582C3.99744 2.2587 3.7217 2.32851 3.46415 2.46464C3.20661 2.60076 2.97231 2.8005 2.77481 3.05324C2.5773 3.30597 2.42043 3.60639 2.31304 3.93726C2.20564 4.26813 2.14983 4.62294 2.14889 4.98157V37.8628C2.1538 38.5842 2.38036 39.2737 2.77899 39.7804C3.17763 40.2871 3.71584 40.5695 4.27582 40.5661H23.5896C23.7562 40.5661 23.916 40.6514 24.0338 40.8032C24.1516 40.9549 24.2178 41.1605 24.2178 41.3751C24.2178 41.5897 24.1516 41.7958 24.0338 41.9476C23.916 42.0993 23.7562 42.1846 23.5896 42.1846H4.27582ZM30.0276 75.0471C29.585 75.0499 29.1465 74.9404 28.7369 74.7247C28.3273 74.509 27.9547 74.1913 27.6405 73.7899C27.3262 73.3885 27.0765 72.9114 26.9056 72.3856C26.7347 71.8597 26.6459 71.2953 26.6444 70.7253V37.8628C26.6444 37.2914 26.732 36.7254 26.9022 36.1976C27.0724 35.6699 27.3219 35.1906 27.6363 34.7874C27.9506 34.3841 28.3235 34.0647 28.7339 33.8477C29.1443 33.6307 29.584 33.5202 30.0276 33.5226H44.7449C44.9115 33.5226 45.0711 33.608 45.1889 33.7597C45.3067 33.9114 45.3729 34.1175 45.3729 34.3321C45.3729 34.5467 45.3067 34.7524 45.1889 34.9041C45.0711 35.0559 44.9115 35.1412 44.7449 35.1412H30.0276C29.7492 35.14 29.4734 35.2093 29.2159 35.3455C28.9583 35.4816 28.7241 35.6818 28.5265 35.9345C28.329 36.1872 28.1722 36.4877 28.0648 36.8185C27.9574 37.1494 27.9016 37.5042 27.9006 37.8628V70.7253C27.9051 71.4485 28.1312 72.1403 28.5295 72.65C28.9278 73.1597 29.4662 73.4464 30.0276 73.4474H55.7793C56.3423 73.4474 56.8825 73.1616 57.2833 72.6522C57.684 72.1429 57.913 71.4505 57.9205 70.7253V37.8628C57.9152 37.1367 57.6869 36.4427 57.2857 35.9327C56.8845 35.4227 56.3429 35.1382 55.7793 35.1412H48.4278C48.2612 35.1412 48.1014 35.0559 47.9836 34.9041C47.8658 34.7524 47.7996 34.5467 47.7996 34.3321C47.7996 34.1175 47.8658 33.9114 47.9836 33.7597C48.1014 33.608 48.2612 33.5226 48.4278 33.5226H55.7793C56.2236 33.52 56.6639 33.6305 57.0752 33.8472C57.4865 34.064 57.8606 34.3825 58.1761 34.7856C58.4917 35.1887 58.7424 35.6678 58.9141 36.1958C59.0858 36.7238 59.175 37.2904 59.1767 37.8628V70.7253C59.1703 71.8784 58.8089 72.9815 58.172 73.7917C57.535 74.602 56.6744 75.0534 55.7793 75.0471H30.0276ZM22.676 32.7872C22.5608 32.7901 22.4472 32.7518 22.3477 32.6768C20.5068 31.2689 18.8133 29.5631 17.3087 27.6012L17.1517 27.3807L16.9804 27.6012C15.4779 29.5586 13.7896 31.2639 11.9557 32.6768C11.8562 32.7518 11.7426 32.7901 11.6274 32.7872C11.5194 32.7842 11.4138 32.7476 11.3193 32.6804C11.2248 32.6131 11.1443 32.5173 11.0849 32.4011C11.0408 32.3119 11.0129 32.2112 11.003 32.1061C10.9931 32.0011 11.0017 31.8943 11.0279 31.7941C11.0447 31.6896 11.0788 31.5912 11.1281 31.5054C11.1774 31.4197 11.2407 31.3487 11.3134 31.2975C13.0893 29.9391 14.7167 28.2818 16.1525 26.3692L16.2952 26.1851L16.1668 25.9831C14.6111 23.6406 13.3184 21.0283 12.3268 18.2226C12.2588 18.0275 12.2538 17.8053 12.3127 17.6053C12.3716 17.4053 12.4896 17.2438 12.641 17.1559C12.7944 17.066 12.9691 17.058 13.127 17.1339C13.2848 17.2097 13.4129 17.3631 13.4831 17.5604C14.3942 20.1323 15.5653 22.538 16.9661 24.7143L17.1517 24.9715L17.323 24.7143C19.307 21.671 20.8146 18.161 21.7624 14.379L21.8624 13.9929H8.87243C8.79088 13.9941 8.70992 13.9745 8.63422 13.9354C8.55853 13.8963 8.48954 13.8382 8.43122 13.7648C8.3729 13.6914 8.32633 13.6041 8.29426 13.5075C8.26219 13.4109 8.24518 13.3073 8.24425 13.2022C8.24574 12.9882 8.31236 12.7834 8.42983 12.632C8.54729 12.4807 8.70631 12.3946 8.87243 12.3927H16.5237V10.8483C16.5237 10.6337 16.5897 10.4276 16.7075 10.2758C16.8253 10.1241 16.9851 10.0388 17.1517 10.0388C17.3183 10.0388 17.4781 10.1241 17.5959 10.2758C17.7136 10.4276 17.7799 10.6337 17.7799 10.8483V12.3927H25.4311C25.5972 12.3946 25.7561 12.4807 25.8736 12.632C25.991 12.7834 26.0576 12.9882 26.0591 13.2022C26.0582 13.3073 26.0412 13.4109 26.0091 13.5075C25.977 13.6041 25.9307 13.6914 25.8723 13.7648C25.814 13.8382 25.745 13.8963 25.6693 13.9354C25.5936 13.9745 25.5127 13.9941 25.4311 13.9929H23.1756L23.1186 14.2133C22.643 16.3408 21.9872 18.3946 21.163 20.3373C20.305 22.3462 19.2911 24.2379 18.1367 25.9831L17.994 26.1851L18.151 26.3692C19.5965 28.2757 21.2278 29.9322 23.0043 31.2975C23.1438 31.4101 23.2441 31.5879 23.284 31.7937C23.3239 31.9994 23.3004 32.2172 23.2185 32.4011C23.1591 32.5173 23.0788 32.6131 22.9843 32.6804C22.8898 32.7476 22.7839 32.7842 22.676 32.7872ZM49.4412 65.668C49.3132 65.6659 49.1888 65.6138 49.0843 65.5185C48.9798 65.4233 48.9003 65.2899 48.8561 65.1351L47.4713 60.4824H38.3497L36.9651 65.1535C36.9129 65.3034 36.8291 65.431 36.723 65.5221C36.617 65.6132 36.4931 65.6637 36.3656 65.668C36.2922 65.6676 36.2194 65.6492 36.1515 65.6133C36.0733 65.5765 36.0015 65.52 35.9405 65.4472C35.8794 65.3743 35.8302 65.2865 35.7957 65.189C35.7611 65.0915 35.742 64.9859 35.7394 64.8788C35.7367 64.7716 35.7507 64.6651 35.7803 64.5649L42.0041 43.7291C42.0768 43.4894 42.2036 43.2833 42.3681 43.1373C42.5326 42.9914 42.7274 42.9126 42.9271 42.9106C43.1269 42.9086 43.3225 42.9835 43.4887 43.1261C43.655 43.2688 43.7843 43.4725 43.8599 43.7107L50.0408 64.5649C50.0957 64.77 50.0854 64.9945 50.0122 65.1899C49.9634 65.3324 49.8834 65.4538 49.782 65.5387C49.6806 65.6237 49.5621 65.6684 49.4412 65.668ZM38.8352 58.8639H47.0003L42.932 45.1267L38.8352 58.8639ZM19.9211 65.668C19.8212 65.6695 19.7224 65.6403 19.633 65.5827C19.5437 65.5252 19.4663 65.441 19.4072 65.3372C19.3577 65.2545 19.3218 65.1596 19.3021 65.0583C19.2825 64.9571 19.2794 64.8515 19.2929 64.7486C19.2994 64.6418 19.3248 64.5388 19.3668 64.4464C19.4088 64.354 19.4665 64.2751 19.5356 64.2156L21.6911 62.1373H18.0653C16.1993 62.1452 14.4072 61.1989 13.0824 59.5059C11.7576 57.813 11.0084 55.512 10.9994 53.1081V46.083C10.9994 45.866 11.0662 45.6578 11.1853 45.5043C11.3044 45.3509 11.466 45.2646 11.6345 45.2646C11.803 45.2646 11.9646 45.3509 12.0837 45.5043C12.2029 45.6578 12.2698 45.866 12.2698 46.083V53.1081C12.2744 55.0831 12.8873 56.9747 13.974 58.3678C15.0607 59.7609 16.5322 60.5416 18.0653 60.5377H21.6911L19.5356 58.4594C19.4684 58.3982 19.4116 58.3203 19.3685 58.23C19.3254 58.1396 19.2969 58.039 19.2849 57.9341C19.2729 57.8292 19.2776 57.7223 19.2987 57.6198C19.3197 57.5173 19.3566 57.4214 19.4072 57.3378C19.464 57.231 19.5409 57.1443 19.6308 57.0864C19.7207 57.0285 19.8207 57.001 19.9211 57.0065C20.0555 57.0081 20.1858 57.0664 20.2922 57.1722L23.9751 60.6845C24.0518 60.7611 24.1145 60.8584 24.1589 60.9696C24.2033 61.0808 24.2283 61.2034 24.2321 61.3283C24.2314 61.454 24.2077 61.5779 24.1631 61.6897C24.1185 61.8015 24.0541 61.8979 23.9751 61.9717L20.2922 65.5028C20.1858 65.6086 20.0555 65.6665 19.9211 65.668ZM48.4278 30.4333C48.3451 30.434 48.2632 30.4135 48.1868 30.3731C48.1103 30.3327 48.0408 30.2733 47.9824 30.198C47.9239 30.1227 47.8776 30.033 47.8463 29.9345C47.8149 29.836 47.799 29.7307 47.7996 29.6242V22.5992C47.7913 20.6242 47.1747 18.7341 46.0853 17.3444C44.9959 15.9548 43.5229 15.1792 41.9898 15.188H38.364L40.5195 17.2479C40.5884 17.3094 40.6467 17.3883 40.6909 17.48C40.7351 17.5717 40.7643 17.6745 40.7765 17.7813C40.7937 17.9914 40.7478 18.2017 40.6481 18.3694C40.593 18.4742 40.5183 18.5594 40.431 18.6173C40.3436 18.6751 40.2465 18.704 40.1483 18.7008C40.0095 18.6995 39.8747 18.6414 39.763 18.5351L36.0943 15.0228C36.0177 14.9462 35.9549 14.8484 35.9105 14.7373C35.8661 14.6261 35.8413 14.5039 35.8375 14.379C35.8381 14.2532 35.8617 14.1294 35.9063 14.0176C35.9509 13.9057 36.0153 13.809 36.0943 13.7352L39.763 10.2044C39.8747 10.0982 40.0095 10.0401 40.1483 10.0388C40.2459 10.0396 40.3421 10.0702 40.4289 10.1277C40.5157 10.1852 40.5908 10.2683 40.6481 10.3701C40.6987 10.4537 40.7356 10.5496 40.7566 10.6521C40.7776 10.7546 40.7822 10.8615 40.7702 10.9663C40.7582 11.0712 40.7298 11.1719 40.6868 11.2622C40.6437 11.3525 40.5867 11.4305 40.5195 11.4916L38.364 13.5699H41.9898C43.8558 13.5621 45.6479 14.5084 46.9727 16.2013C48.2976 17.8943 49.0467 20.1953 49.0558 22.5992V29.6242C49.0563 29.7307 49.0406 29.836 49.0092 29.9345C48.9779 30.033 48.9316 30.1227 48.8731 30.198C48.8147 30.2733 48.7452 30.3327 48.6687 30.3731C48.5923 30.4135 48.5104 30.434 48.4278 30.4333Z" fill="black"/>
</svg>
