<svg width="50" height="66" viewBox="0 0 50 66" fill="none" xmlns="http://www.w3.org/2000/svg">
<path fill-rule="evenodd" clip-rule="evenodd" d="M49.3282 36.1263L44.7629 24.5632C44.5785 24.0698 44.289 23.6514 43.9268 23.3549C43.5646 23.0584 43.1441 22.8957 42.7127 22.8852H7.67294C7.24221 22.8973 6.82262 23.0606 6.46104 23.3569C6.09946 23.6533 5.81009 24.0709 5.62535 24.5632L1.06009 36.1263C0.942727 36.4285 0.886639 36.7629 0.896957 37.0993C0.907275 37.4358 0.983652 37.7635 1.11917 38.0533C1.23704 38.3139 1.40688 38.5308 1.61177 38.6824C1.81665 38.834 2.04938 38.9151 2.28674 38.9173H6.00756V62.1598C5.97938 62.9173 6.19019 63.6579 6.59363 64.2187C6.99707 64.7795 7.56011 65.1147 8.15888 65.1504H42.232C42.8302 65.1138 43.3924 64.7783 43.7951 64.2175C44.1977 63.6567 44.4079 62.9166 44.3794 62.1598V52.1916C44.3794 51.9449 44.3019 51.7082 44.164 51.5337C44.026 51.3592 43.8389 51.2612 43.6439 51.2612C43.4488 51.2612 43.2617 51.3592 43.1238 51.5337C42.9859 51.7082 42.9084 51.9449 42.9084 52.1916V62.1598C42.9272 62.4172 42.8677 62.674 42.742 62.8778C42.6163 63.0815 42.4339 63.2171 42.232 63.2566H25.9303V27.7862L29.7733 37.5386C29.9272 37.9442 30.1671 38.2877 30.4662 38.5311C30.7653 38.7746 31.1119 38.9081 31.4675 38.9173H42.9084V47.7559C42.9084 48.0026 42.9859 48.2393 43.1238 48.4138C43.2617 48.5883 43.4488 48.6864 43.6439 48.6864C43.8389 48.6864 44.026 48.5883 44.164 48.4138C44.3019 48.2393 44.3794 48.0026 44.3794 47.7559V38.9173H48.0976C48.3356 38.9159 48.5691 38.8353 48.7748 38.6837C48.9804 38.532 49.1509 38.3147 49.2691 38.0533C49.4028 37.7627 49.478 37.4353 49.4883 37.0993C49.4986 36.7634 49.4436 36.4292 49.3282 36.1263ZM2.36946 37.0235C2.36918 37.006 2.37282 36.9886 2.37996 36.9736L6.93745 25.4272C7.00064 25.2436 7.10283 25.0857 7.23269 24.9713C7.36254 24.8569 7.51495 24.7903 7.67294 24.779H23.9891C23.4296 26.2078 20.049 34.7475 19.2911 36.6747C19.2615 36.7706 19.2112 36.8539 19.146 36.9156C19.0807 36.9773 19.0032 37.0147 18.9221 37.0235H2.37347H2.36946ZM24.4567 63.2566H8.15888C7.95598 63.219 7.77221 63.0843 7.6456 62.8802C7.51899 62.6761 7.4592 62.4181 7.47854 62.1598V38.9173H18.9221C19.2771 38.9088 19.6233 38.7755 19.9216 38.532C20.22 38.2884 20.4588 37.9444 20.6111 37.5386L24.4567 27.7862V63.2566ZM31.4675 37.0235C31.3852 37.0156 31.3063 36.9785 31.2397 36.9168C31.1731 36.8552 31.1215 36.7715 31.0906 36.6747L26.3979 24.779H42.7153C42.8727 24.7915 43.0244 24.8586 43.1537 24.9729C43.283 25.0872 43.3848 25.2445 43.4482 25.4272L48.0083 36.9736C48.0165 36.988 48.0203 37.0058 48.0188 37.0235H31.4702H31.4675ZM25.1921 3.31422C24.8132 2.51946 24.2955 1.84502 23.6786 1.34256C23.0617 0.8401 22.3621 0.522794 21.6333 0.415339C20.9046 0.307884 20.166 0.413277 19.4743 0.72279C18.7826 1.0323 18.1561 1.53801 17.6428 2.20123C16.7261 3.37915 16.2144 4.96739 16.2191 6.62033C16.2191 11.4549 18.7317 16.1067 23.0973 19.4294C23.2084 19.5211 23.339 19.5676 23.4716 19.5625C23.6004 19.5629 23.7271 19.5201 23.8385 19.4384C23.95 19.3566 24.0423 19.2389 24.106 19.0972C24.2041 18.8777 24.2315 18.6189 24.1826 18.3744C24.1337 18.13 24.0122 17.9187 23.8433 17.7847C21.9928 16.3891 17.6927 12.485 17.6875 6.62033C17.6815 6.00584 17.78 5.39696 17.9763 4.83485C18.1727 4.27273 18.4622 3.77059 18.8255 3.36249C19.1887 2.95438 19.6171 2.64965 20.0815 2.46934C20.546 2.28903 21.0357 2.23715 21.5173 2.31724C22.0645 2.42745 22.584 2.69652 23.0354 3.1029C23.4867 3.50928 23.8576 4.04221 24.1191 4.66003C24.2475 4.86674 24.4116 5.03337 24.5989 5.14757C24.7861 5.26176 24.9914 5.32034 25.1993 5.31874C25.4071 5.31713 25.612 5.25531 25.7981 5.13824C25.9842 5.02117 26.1466 4.85208 26.2731 4.6434C26.5641 3.93914 26.9996 3.34691 27.5339 2.92889C28.0681 2.51088 28.6815 2.2822 29.3096 2.26735C30.2112 2.27962 31.0723 2.74241 31.7051 3.55475C32.338 4.36708 32.6912 5.46322 32.6877 6.6037C32.6955 12.1859 28.8342 16.007 26.5279 17.7847C26.3603 17.9202 26.2406 18.1326 26.1941 18.3773C26.1476 18.622 26.1778 18.8801 26.2783 19.0972C26.3269 19.2042 26.392 19.2976 26.4699 19.3718C26.5477 19.4461 26.6366 19.4993 26.7313 19.5288C26.8259 19.5583 26.9243 19.5634 27.0205 19.5434C27.1167 19.5235 27.2087 19.479 27.291 19.4128C31.7263 15.9904 34.1665 11.4383 34.1665 6.6037C34.1801 5.26211 33.8453 3.95192 33.2136 2.87414C32.5819 1.79635 31.6881 1.01063 30.6693 0.637207C29.6506 0.263784 28.5632 0.323168 27.5738 0.806751C26.5844 1.29033 25.7477 2.1713 25.1921 3.31422Z" fill="#1F1F1F"/>
</svg>
