<svg width="60" height="51" viewBox="0 0 60 51" fill="none" xmlns="http://www.w3.org/2000/svg">
<path fill-rule="evenodd" clip-rule="evenodd" d="M30.205 22.5609C28.5075 22.574 26.8452 21.9361 25.4288 20.7281C24.0125 19.5202 22.9058 17.7968 22.2491 15.7759C21.5925 13.7551 21.4154 11.5281 21.7404 9.37715C22.0653 7.22622 22.8776 5.248 24.0744 3.69377C25.2711 2.13954 26.7984 1.07908 28.4625 0.646708C30.1267 0.214336 31.8529 0.429647 33.4222 1.26522C34.9915 2.1008 36.3332 3.5189 37.2774 5.34009C38.2216 7.16128 38.7257 9.3037 38.7257 11.4952C38.7297 14.4202 37.8349 17.2275 36.2376 19.302C34.6402 21.3765 32.4708 22.5486 30.205 22.5609ZM30.205 1.93256C28.7382 1.92154 27.3018 2.47283 26.0781 3.51684C24.8543 4.56086 23.8982 6.05059 23.331 7.7969C22.7637 9.54321 22.6109 11.4675 22.8918 13.3261C23.1727 15.1847 23.8747 16.8939 24.9089 18.2368C25.9431 19.5797 27.2629 20.4959 28.7009 20.8694C30.1389 21.2429 31.6305 21.0567 32.9865 20.3346C34.3425 19.6125 35.5019 18.387 36.3178 16.8133C37.1336 15.2396 37.5691 13.3888 37.5692 11.4952C37.5701 8.96828 36.7959 6.54364 35.4159 4.75167C34.0359 2.9597 32.1623 1.94607 30.205 1.93256ZM48.736 29.4321C47.5668 29.4402 46.4221 28.9999 45.4469 28.1672C44.4717 27.3345 43.71 26.1467 43.2583 24.7545C42.8065 23.3624 42.685 21.8284 42.9093 20.3471C43.1336 18.8657 43.6935 17.5035 44.518 16.4334C45.3426 15.3632 46.3947 14.6334 47.541 14.3359C48.6872 14.0385 49.8761 14.1871 50.9569 14.7628C52.0377 15.3386 52.9618 16.3154 53.612 17.5698C54.2622 18.8243 54.6093 20.2998 54.6093 21.8091C54.6103 23.8245 53.9927 25.758 52.8916 27.1867C51.7906 28.6154 50.2959 29.423 48.7348 29.4321H48.736ZM48.736 15.6897C47.7975 15.6837 46.8787 16.0377 46.0961 16.7065C45.3136 17.3752 44.7024 18.329 44.34 19.4467C43.9777 20.5643 43.8805 21.7955 44.0607 22.9845C44.241 24.1735 44.6906 25.2667 45.3526 26.1255C46.0146 26.9844 46.8592 27.57 47.7793 27.8086C48.6994 28.0471 49.6537 27.928 50.5212 27.4657C51.3887 27.0035 52.1305 26.2189 52.6523 25.2119C53.1742 24.2049 53.4528 23.0207 53.4528 21.8091C53.4548 21.0072 53.3343 20.2126 53.0982 19.4709C52.8621 18.7292 52.515 18.0549 52.0768 17.4865C51.6385 16.9181 51.1178 16.4671 50.5444 16.1588C49.9709 15.8505 49.356 15.6909 48.7348 15.6897H48.736ZM11.8615 29.4321C10.6923 29.4408 9.54733 29.001 8.57185 28.1687C7.59637 27.3363 6.83424 26.1488 6.38213 24.7567C5.93002 23.3646 5.80831 21.8305 6.03232 20.3489C6.25633 18.8674 6.81604 17.5049 7.64048 16.4345C8.46493 15.364 9.51698 14.634 10.6633 14.3363C11.8097 14.0386 12.9987 14.1868 14.0796 14.7625C15.1606 15.3381 16.0847 16.3153 16.7351 17.5698C17.3854 18.8243 17.7326 20.2996 17.7326 21.8091C17.7339 23.8238 17.1168 25.757 16.0164 27.1856C14.9161 28.6143 13.4221 29.4222 11.8615 29.4321ZM11.8615 15.6897C10.923 15.6837 10.0043 16.0377 9.22171 16.7065C8.43913 17.3752 7.82796 18.329 7.46561 19.4467C7.10327 20.5643 7.00606 21.7955 7.18632 22.9845C7.36658 24.1735 7.81624 25.2667 8.47823 26.1255C9.14022 26.9844 9.98474 27.57 10.9049 27.8086C11.825 28.0471 12.7793 27.928 13.6468 27.4657C14.5144 27.0035 15.256 26.2189 15.7779 25.2119C16.2998 24.2049 16.5784 23.0207 16.5784 21.8091C16.5806 20.1905 16.0851 18.6371 15.2007 17.4898C14.3163 16.3425 13.1153 15.6949 11.8615 15.6897ZM59.3263 50.0454C59.1718 50.0454 59.0237 49.9661 58.9145 49.8252C58.8053 49.6842 58.7439 49.493 58.7439 49.2936C58.748 45.8598 57.6971 42.5641 55.8217 40.129C53.9463 37.6938 51.3994 36.3181 48.7395 36.3033C47.4027 36.3022 46.0795 36.6498 44.8495 37.3256L44.0797 37.7467L44.4942 38.6937C45.9219 41.9224 46.6727 45.576 46.6722 49.2936C46.6722 49.493 46.6108 49.6842 46.5016 49.8252C46.3924 49.9661 46.2443 50.0454 46.0899 50.0454C45.9354 50.0454 45.7873 49.9661 45.6781 49.8252C45.5689 49.6842 45.5076 49.493 45.5076 49.2936C45.5076 46.6994 45.1117 44.1306 44.3427 41.7338C43.5737 39.337 42.4465 37.1591 41.0255 35.3247C39.6046 33.4903 37.9176 32.0352 36.061 31.0425C34.2044 30.0497 32.2145 29.5389 30.205 29.5389C28.1954 29.5389 26.2056 30.0497 24.349 31.0425C22.4924 32.0352 20.8055 33.4903 19.3845 35.3247C17.9635 37.1591 16.8363 39.337 16.0673 41.7338C15.2983 44.1306 14.9025 46.6994 14.9025 49.2936C14.9025 49.493 14.8411 49.6842 14.7319 49.8252C14.6227 49.9661 14.4746 50.0454 14.3202 50.0454C14.1657 50.0454 14.0176 49.9661 13.9084 49.8252C13.7992 49.6842 13.7378 49.493 13.7378 49.2936C13.738 45.5769 14.4869 41.9239 15.9111 38.6937L16.3304 37.7467L15.5535 37.3256C13.7206 36.3208 11.6964 36.0486 9.74248 36.5445C7.78856 37.0404 5.99478 38.2812 4.59291 40.1069C3.66066 41.3144 2.92191 42.7476 2.4189 44.3239C1.9159 45.9002 1.65849 47.5888 1.66142 49.2936C1.66142 49.493 1.60009 49.6842 1.49088 49.8252C1.38168 49.9661 1.23353 50.0454 1.07909 50.0454C0.924643 50.0454 0.776497 49.9661 0.667289 49.8252C0.55808 49.6842 0.496755 49.493 0.496755 49.2936C0.486241 46.8547 0.955421 44.4523 1.86032 42.3112C2.76521 40.1701 4.07619 38.3604 5.67057 37.0518C7.26494 35.7432 9.09055 34.9785 10.9763 34.8292C12.8621 34.6798 14.7463 35.1508 16.4527 36.198L16.9872 36.5287L17.3552 35.9425C18.8882 33.4438 20.8392 31.4249 23.062 30.0371C25.2848 28.6492 27.7219 27.9282 30.1911 27.9282C32.6602 27.9282 35.0973 28.6492 37.3201 30.0371C39.5429 31.4249 41.4938 33.4438 43.0268 35.9425L43.3937 36.5287L43.9236 36.198C45.6304 35.1498 47.5154 34.6778 49.402 34.8266C51.2885 34.9754 53.115 35.7399 54.7103 37.0485C56.3056 38.3571 57.6175 40.167 58.5232 42.3086C59.4289 44.4503 59.8988 46.8537 59.8888 49.2936C59.8889 49.4887 59.8302 49.6761 59.7253 49.8164C59.6203 49.9566 59.4773 50.0388 59.3263 50.0454Z" fill="black"/>
</svg>
